<svg xmlns="http://www.w3.org/2000/svg" width="140" height="28" fill="none" title="logo" class="sm:mx-auto" xmlns:xlink="http://www.w3.org/1999/xlink"><rect width="27.378" height="27.378" x="0.311" y="0.311" fill="#0D0D0D" rx="7.156"></rect><rect width="27.378" height="27.378" x="0.311" y="0.311" stroke="#fff" stroke-width="0.622" rx="7.156"></rect><path fill="#fff" fill-rule="evenodd" d="M17.126 4.342q.115.054.226.113c1.914.91 3.181 2.65 3.181 4.69 0 2.57-1.599 3.966-3.145 5.316l-.001.001c-.753.657-1.465 1.279-1.988 2.023-.535.761-.582 1.122-.582 2.623v.339H12.51l-1.131-.566v-1.644c0-1.98 1.148-3.275 2.259-4.528l.002-.002c1.168-1.316 2.271-2.56 2.271-4.607 0-.978-.313-1.736-.896-2.235a4.4 4.4 0 0 0-1.079-.126c-.846 0-1.531.259-2.034.55.536.412.816.987.816 1.688 0 1.149-.918 2.015-2.135 2.015-.361 0-.703-.092-.998-.265a2 2 0 0 1-.226-.113 2 2 0 0 1-.226-.112 2 2 0 0 1-.226-.113 2 2 0 0 1-.226-.113 1.9 1.9 0 0 1-.626-.427c-.385-.397-.588-.946-.588-1.587 0-1.034.587-2.065 1.612-2.827 1.061-.79 2.494-1.225 4.035-1.225 1.233 0 2.373.29 3.334.793q.114.054.226.113.114.054.226.113.115.054.226.113M13.75 20.403c.08.034.833.411.904.453h.001c.795.335 1.207 1.126 1.207 1.91 0 .49-.189.982-.517 1.353-.272.306-.763.671-1.562.671-.457 0-.812-.12-1.084-.278-.081-.035-.835-.412-.905-.453a1.95 1.95 0 0 1-.703-.506 2.07 2.07 0 0 1-.516-1.352c0-.521.187-1.035.515-1.409.267-.306.756-.67 1.563-.67.431 0 .798.106 1.097.281m-2.837 1.798c0-.842.57-1.74 1.74-1.74 1.168 0 1.739.898 1.739 1.74 0 .76-.57 1.685-1.74 1.685-1.168 0-1.739-.924-1.739-1.685M7.806 7.26c0-1.862 2.165-3.712 5.308-3.712 3.267 0 5.95 2.148 5.95 5.03 0 2.417-1.527 3.75-3.03 5.062-.751.655-1.496 1.305-2.043 2.083-.603.857-.644 1.32-.644 2.819h-1.63v-1.306c0-1.852 1.074-3.062 2.176-4.304 1.162-1.311 2.357-2.658 2.357-4.833 0-1.916-1.139-3.266-3.444-3.266a4.4 4.4 0 0 0-2.665.9c.749.36 1.108.929 1.108 1.677 0 .958-.748 1.677-1.796 1.677-.883 0-1.647-.659-1.647-1.826" clip-rule="evenodd"></path><path fill="#0D0D0D" d="M12.652 20.462c-1.17 0-1.74.897-1.74 1.739 0 .76.57 1.685 1.74 1.685 1.168 0 1.739-.924 1.739-1.685 0-.842-.57-1.74-1.74-1.74m.462-16.913c-3.143 0-5.308 1.85-5.308 3.713 0 1.167.764 1.826 1.647 1.826 1.048 0 1.796-.719 1.796-1.677 0-.748-.36-1.317-1.108-1.676.599-.45 1.497-.901 2.665-.901 2.305 0 3.444 1.35 3.444 3.266 0 4.237-4.532 5.33-4.532 9.137v1.305h1.629c0-1.497.041-1.961.644-2.818 1.642-2.336 5.072-3.521 5.072-7.145 0-2.882-2.682-5.03-5.95-5.03"></path><path fill="#fff" d="M70.277 20.728c-2.388 0-4.257-2.103-4.257-6.311s1.59-6.249 3.942-6.249c1.092 0 1.696.504 1.986 1.37.38 1.133.3 2.645 1.845 2.645.802 0 1.336-.669 1.336-1.535 0-1.453-2.21-3.277-5.293-3.277-3.735 0-6.81 2.398-6.81 7.387s3.978 6.862 6.842 6.862 4.706-1.307 5.645-3.442l-.82-.256c-.737 1.552-2.366 2.806-4.415 2.806zM58.623 8.581q-1.765-1.21-4.005-1.21-3.185 0-5.234 2.2-1.766 1.943-1.766 4.781-.001 3.89 2.776 5.929a6.77 6.77 0 0 0 4.099 1.34q3.121 0 5.139-2.232 1.828-2.009 1.829-4.942 0-3.888-2.838-5.866m-4.037 12.242q-3.941-.062-3.973-6.344.031-6.28 3.91-6.31 3.878.063 3.91 6.183-.033 6.44-3.849 6.47zm66.815-13.454c-3.617 0-6.998 2.398-6.998 7.389s4.204 6.86 7.03 6.86c3.379 0 4.903-1.716 5.645-3.442l-.821-.256c-.737 1.552-2.168 2.806-4.414 2.806s-4.338-2.44-4.425-5.837h10.085v-.64c0-3.489-2.114-6.88-6.102-6.88M124.493 14l-7.091.004v-.209c0-3.605 1.701-5.621 3.898-5.621s3.193 2.236 3.193 5.621zm-82.463-.585c-1.732-.72-4.511-1.567-4.511-3.236 0-1.488 1.77-2.01 3.443-2.01 1.757 0 3.834 1.022 3.834 2.91v.087h.78V7.18h-.791l-.124 1.084c-.99-.595-2.489-.893-3.92-.893-2.922 0-5.274 1.198-5.274 3.633s2.007 3.472 4.053 4.378c2.047.906 4.85 1.688 4.85 3.136 0 1.582-1.506 2.304-3.335 2.304-2.742 0-4.716-1.478-4.716-3.92v-.256h-.852v4.972h.79l.124-1.079c1.143.7 2.967 1.079 4.517 1.079 2.391 0 5.558-.796 5.558-3.858 0-2.874-2.693-3.628-4.424-4.348zm59.843 7.186c-.741 0-1.303-.642-1.303-2.022v-6.33c-.006-3.272-2.301-4.877-5.598-4.877-3.085 0-5.482 1.742-5.482 3.348 0 .972.645 1.465 1.338 1.465 1.543 0 1.462-1.512 1.843-2.645.292-.868 1.081-1.372 2.174-1.372 1.735 0 3.036 1.126 3.013 3.316v1.63c-5.234.02-8.765 1.922-8.765 4.867v.356c0 2.065 1.548 3.283 4.024 3.283 2.346 0 4.089-1.417 4.773-2.9.272 1.913 1.655 2.9 3.169 2.9 1.655 0 2.448-.852 2.952-1.396l-.407-.52c-.373.41-1.079.897-1.731.897m-4.015-3.746c-.358 1.467-1.653 3.458-3.469 3.458-1.325 0-2.489-.748-2.489-2.423v-.45c0-1.422.965-2.733 2.521-3.116q1.228-.287 3.437-.318zm13.492 3.746c-1.239 0-2.534-.803-2.534-3.251V8.415h4.762v-.798h-4.762v-4.35h-.789c0 2.402-1.926 4.35-4.303 4.35h-.922v.798h3.3c0 1.405-.005 8.41 0 8.399 0 3.09 1.805 4.808 4.129 4.808 2.178 0 3.256-1.042 3.76-1.586l-.407-.519c-.373.41-1.154 1.086-2.236 1.086zM85.898 7.531c-2.858 0-4.425 2.26-4.853 3.273l-.1-3.08H75.97v.986h2.427v11.607H75.97v.987h8.573v-.987h-3.434v-6.12c0-2.762 2.257-5.261 3.117-5.261.98 0 .783 1.911 2.365 1.911.693 0 1.419-.63 1.419-1.466s-.671-1.847-2.113-1.847zm49.679 5.884c-1.732-.72-4.511-1.567-4.511-3.236 0-1.488 1.771-2.01 3.443-2.01 1.758 0 3.834 1.022 3.834 2.91v.087h.78V7.18h-.791l-.124 1.084c-.989-.595-2.489-.893-3.92-.893-2.924 0-5.276 1.198-5.276 3.633s2.007 3.472 4.054 4.378c2.046.906 4.85 1.688 4.85 3.136 0 1.582-1.507 2.304-3.336 2.304-2.742 0-4.715-1.478-4.715-3.92v-.256h-.855v4.972h.791l.124-1.079c1.143.7 2.966 1.079 4.516 1.079 2.392 0 5.559-.796 5.559-3.858 0-2.874-2.693-3.628-4.425-4.348z"></path></svg>